<svg width="24" height="20" viewBox="0 0 24 20" fill="none" xmlns="http://www.w3.org/2000/svg">
<path fill-rule="evenodd" clip-rule="evenodd" d="M0 10V20H11.6822H23.3645V10V0H11.6822H0V10ZM9.66985 2.40986L11.0816 3.81977V6.99985V10.1799L9.6702 11.59L8.25875 13H6.9945C5.86016 13 5.72902 13.0032 5.7181 13.0317C5.71144 13.0491 5.70595 14.416 5.70595 16.0692C5.70595 18.5882 5.70151 19.0788 5.67856 19.0978C5.63171 19.1367 1.28569 19.1191 1.26092 19.08C1.23049 19.0319 1.23487 1.05439 1.2653 1.02398C1.28382 1.00555 2.09036 1 4.77371 1H8.25805L9.66985 2.40986ZM20.7069 2.41534L22.1232 3.83068L22.1229 5.94033C22.1227 7.10067 22.1154 8.06129 22.1066 8.07506C22.094 8.09502 21.6112 8.0991 19.7594 8.09508L17.4283 8.09L17.4183 6.40001L17.4082 4.71001L17.0634 4.70453C16.7192 4.69904 16.7185 4.69916 16.7075 4.74456C16.7015 4.76953 16.699 7.184 16.702 10.11L16.7075 15.43L17.0629 15.4355L17.4183 15.4409V13.3945C17.4183 11.8294 17.4239 11.3424 17.4423 11.324C17.4771 11.2892 22.0642 11.2892 22.0992 11.324C22.1176 11.3424 22.1232 11.9237 22.1232 13.8187V16.2893L20.7267 17.6852C19.6396 18.7718 19.3147 19.0856 19.2601 19.1015C19.2138 19.1149 18.4135 19.1198 16.8926 19.1159L14.595 19.11L13.1837 17.6997L11.7723 16.2894V10.0598V3.8301L13.1888 2.41505L14.6052 1H16.9479H19.2906L20.7069 2.41534ZM5.71933 4.67331C5.69001 4.7026 5.70414 9.3936 5.73364 9.41805C5.75268 9.43386 5.86956 9.43929 6.10905 9.43549L6.45677 9.43001L6.46185 7.04501L6.46693 4.66001H6.09982C5.89789 4.66001 5.72669 4.66602 5.71933 4.67331Z" fill="#040404" fill-opacity="0.3"/>
<path fill-rule="evenodd" clip-rule="evenodd" d="M1.31083 1.06501C1.30563 1.07878 1.30365 5.13102 1.30645 10.07L1.31159 19.05H3.48384H5.65609L5.66614 16.0109L5.67613 12.9718L5.72619 12.9579C5.7537 12.9503 6.33045 12.9431 7.00779 12.942L8.23933 12.94L9.63553 11.5453L11.0317 10.1505V7.00003V3.84965L9.62496 2.44481L8.21812 1.03998H4.76924C2.02853 1.03998 1.31837 1.04511 1.31083 1.06501ZM14.6255 1.05964C14.6035 1.06909 13.9638 1.69852 13.204 2.45847L11.8226 3.84014L11.8175 10.0446L11.8124 16.2491L13.2188 17.6546L14.6251 19.06H16.9474H19.2697L20.6665 17.6652L22.0633 16.2704V13.8152V11.36H19.7709H17.4785V13.3962C17.4785 14.9965 17.4731 15.4397 17.4534 15.4667C17.431 15.4973 17.3879 15.5003 17.048 15.4955L16.6676 15.49V10.08V4.66999L17.048 4.66457C17.3879 4.65966 17.431 4.66276 17.4534 4.69339C17.473 4.72017 17.4785 5.09005 17.4785 6.39394V8.06019L19.7659 8.05511L22.0533 8.05003L22.0584 5.94687L22.0635 3.84376L20.6719 2.458C19.9064 1.69583 19.269 1.06513 19.2553 1.05643C19.2214 1.03496 14.6759 1.03811 14.6255 1.05964ZM6.49336 4.625C6.52508 4.64834 6.527 4.81202 6.52216 7.06001L6.51702 9.46998H6.09657H5.67613L5.67099 7.06001C5.66614 4.81202 5.66813 4.64834 5.69984 4.625C5.72409 4.60721 5.83787 4.60003 6.09657 4.60003C6.35528 4.60003 6.46906 4.60721 6.49336 4.625Z" fill="#FBFBFB"/>
<path fill-rule="evenodd" clip-rule="evenodd" d="M1.26537 1.02398C1.23493 1.05438 1.23055 19.0319 1.26099 19.08C1.28575 19.1191 5.63178 19.1367 5.67862 19.0978C5.70158 19.0788 5.70602 18.5882 5.70602 16.0692C5.70602 14.416 5.71151 13.049 5.71816 13.0317C5.72909 13.0032 5.86022 13 6.99457 13H8.25882L9.67026 11.5899L11.0817 10.1799V6.99984V3.81977L9.66991 2.40985L8.25812 1H4.77377C2.09042 1 1.28388 1.00554 1.26537 1.02398ZM13.1888 2.41505L11.7724 3.83009V10.0598V16.2894L13.1838 17.6997L14.5951 19.11L16.8926 19.1159C18.4135 19.1198 19.2138 19.1149 19.2602 19.1015C19.3148 19.0856 19.6396 18.7718 20.7267 17.6852L22.1232 16.2893V13.8187C22.1232 11.9237 22.1176 11.3424 22.0992 11.324C22.0643 11.2892 17.4772 11.2892 17.4423 11.324C17.4239 11.3424 17.4183 11.8294 17.4183 13.3945V15.4409L17.063 15.4354L16.7076 15.43L16.7021 10.11C16.6991 7.184 16.7016 4.76953 16.7076 4.74455C16.7186 4.69916 16.7193 4.69904 17.0634 4.70453L17.4083 4.71001L17.4183 6.4L17.4283 8.09L19.7595 8.09507C21.6113 8.0991 22.094 8.09501 22.1066 8.07506C22.1155 8.06129 22.1228 7.10067 22.1229 5.94032L22.1232 3.83068L20.7069 2.41534L19.2906 1H16.9479H14.6052L13.1888 2.41505ZM9.64485 2.42479L11.0516 3.82963V6.99984V10.1701L9.65011 11.5701L8.24859 12.97L6.97231 12.98L5.69603 12.99L5.68604 16.03L5.67599 19.07H3.48371H1.29142L1.28628 10.07C1.28347 5.11998 1.28546 1.05876 1.29066 1.04499C1.29819 1.02515 2.01239 1.02001 4.7691 1.02001H8.23802L9.64485 2.42479ZM20.6764 2.42491L22.0834 3.8298L22.0783 5.94989L22.0732 8.06998L19.7658 8.07506C18.4967 8.07786 17.4563 8.07786 17.4537 8.07506C17.4512 8.07232 17.4444 7.30951 17.4387 6.37999L17.4283 4.69H17.0579H16.6875L16.6825 10.0746L16.6774 15.4592L16.7225 15.4703C16.7474 15.4764 16.9163 15.4789 17.0979 15.4757L17.4283 15.47L17.4383 13.42C17.4439 12.2925 17.4556 11.3588 17.4645 11.345C17.4816 11.3186 21.9834 11.306 22.0515 11.3322C22.0802 11.3431 22.0832 11.5807 22.0832 13.8173V16.2904L20.6864 17.6852L19.2896 19.08H16.9473H14.605L13.1987 17.6747L11.7924 16.2693L11.7922 10.0497L11.7919 3.82998L13.2048 2.42502L14.6177 1.02001H16.9437H19.2696L20.6764 2.42491ZM5.69544 4.66456C5.69007 4.67856 5.68802 5.76101 5.69089 7.06998L5.69603 9.45002L6.09095 9.45545L6.48586 9.46087L6.49684 9.41542C6.50292 9.39044 6.50537 8.30799 6.50234 7.01L6.49684 4.65003L6.10099 4.6446C5.79521 4.6404 5.70292 4.64495 5.69544 4.66456ZM6.46191 7.04501L6.45683 9.43L6.10911 9.43549C5.86963 9.43928 5.75274 9.43386 5.7337 9.41804C5.70421 9.39359 5.69007 4.7026 5.71939 4.67331C5.72675 4.66602 5.89795 4.66001 6.09988 4.66001H6.467L6.46191 7.04501Z" fill="#7C7C7C"/>
<path fill-rule="evenodd" clip-rule="evenodd" d="M1.29446 1.03501C1.28604 1.04855 3.66303 1.04849 6.98732 1.03483C7.67552 1.03198 6.67827 1.02748 4.7712 1.02486C2.86408 1.02217 1.29954 1.02672 1.29446 1.03501ZM15.7715 1.03501C16.413 1.03793 17.4625 1.03793 18.104 1.03501C18.7454 1.03209 18.2206 1.02964 16.9377 1.02964C15.6549 1.02964 15.1301 1.03209 15.7715 1.03501ZM9.64018 2.44002C10.4109 3.21549 11.0457 3.84736 11.0508 3.84416C11.0558 3.84095 10.4252 3.20645 9.64935 2.43419L8.23878 1.02999L9.64018 2.44002ZM19.5905 1.36002C19.6335 1.40402 19.6732 1.44002 19.6787 1.44002C19.6842 1.44002 19.6535 1.40402 19.6106 1.36002C19.5675 1.31602 19.5278 1.28002 19.5223 1.28002C19.5168 1.28002 19.5475 1.31602 19.5905 1.36002ZM19.8508 1.61997C19.8938 1.66402 19.9335 1.70003 19.939 1.70003C19.9445 1.70003 19.9138 1.66402 19.8708 1.61997C19.8278 1.57597 19.7881 1.53997 19.7826 1.53997C19.7771 1.53997 19.8078 1.57597 19.8508 1.61997ZM13.8633 1.76503L13.8044 1.82997L13.8695 1.77127C13.9053 1.73894 13.9346 1.70971 13.9346 1.70627C13.9346 1.69081 13.9181 1.7044 13.8633 1.76503ZM20.081 1.84625C20.081 1.84969 20.1103 1.87893 20.1461 1.91125L20.2111 1.97001L20.1524 1.90501C20.0975 1.84438 20.081 1.83079 20.081 1.84625ZM13.5436 2.08502L13.4241 2.21L13.5492 2.09062C13.618 2.02498 13.6743 1.96873 13.6743 1.96563C13.6743 1.95087 13.6545 1.9689 13.5436 2.08502ZM13.2339 2.39001C13.1852 2.4395 13.1499 2.47999 13.1554 2.47999C13.161 2.47999 13.2052 2.4395 13.2539 2.39001C13.3025 2.34048 13.3378 2.29998 13.3323 2.29998C13.3268 2.29998 13.2825 2.34048 13.2339 2.39001ZM12.4229 3.20499L11.8224 3.81002L12.428 3.21012C12.7611 2.88021 13.0336 2.60795 13.0336 2.60515C13.0336 2.59097 12.981 2.64273 12.4229 3.20499ZM11.8022 10.05C11.8022 13.471 11.8046 14.8735 11.8074 13.1666C11.8102 11.4598 11.8102 8.66078 11.8074 6.94663C11.8046 5.23248 11.8022 6.62903 11.8022 10.05ZM5.69901 4.63497C5.69387 4.64326 5.80824 4.64764 5.9531 4.64483C6.43201 4.63538 6.48201 4.62791 6.09258 4.62395C5.88125 4.62179 5.70415 4.62675 5.69901 4.63497ZM16.8827 4.67489C16.979 4.67856 17.1367 4.67856 17.233 4.67489C17.3294 4.67121 17.2506 4.66823 17.0579 4.66823C16.8652 4.66823 16.7863 4.67121 16.8827 4.67489ZM17.4382 6.35601L17.4483 8.03001L17.4534 6.37112C17.4562 5.45876 17.4517 4.7054 17.4434 4.69712C17.435 4.68877 17.4328 5.4353 17.4382 6.35601ZM16.6673 10.08C16.6673 13.0225 16.6696 14.2263 16.6725 12.755C16.6753 11.2837 16.6753 8.87626 16.6725 7.40503C16.6696 5.93373 16.6673 7.13749 16.6673 10.08ZM5.93119 9.47488C6.02757 9.47855 6.18522 9.47855 6.2816 9.47488C6.37792 9.4712 6.29912 9.46822 6.10642 9.46822C5.91373 9.46822 5.83487 9.4712 5.93119 9.47488ZM17.4714 11.335C17.463 11.3486 19.0704 11.3485 21.2322 11.3348C21.6837 11.3319 21.0243 11.3274 19.7669 11.3247C18.5094 11.3222 17.4765 11.3267 17.4714 11.335ZM17.4479 13.41C17.4479 14.532 17.4503 14.9881 17.4533 14.4235C17.4562 13.8589 17.4562 12.9409 17.4533 12.3835C17.4503 11.8261 17.4479 12.288 17.4479 13.41ZM6.3531 12.975C6.7035 12.978 7.27108 12.978 7.61443 12.975C7.95777 12.9719 7.67103 12.9694 6.97733 12.9694C6.28359 12.9694 6.00269 12.9719 6.3531 12.975ZM20.6816 17.675L19.2902 19.07L20.6867 17.6801C21.9848 16.388 22.0921 16.28 22.0781 16.28C22.0753 16.28 21.4469 16.9077 20.6816 17.675ZM12.0526 16.5262C12.0526 16.5297 12.0819 16.559 12.1177 16.5912L12.1828 16.65L12.1239 16.585C12.0692 16.5244 12.0526 16.5108 12.0526 16.5262ZM12.3429 16.82C12.4083 16.886 12.4663 16.94 12.4718 16.94C12.4773 16.94 12.4283 16.886 12.363 16.82C12.2976 16.754 12.2396 16.7 12.234 16.7C12.2286 16.7 12.2776 16.754 12.3429 16.82ZM13.5842 18.06C14.1457 18.621 14.6096 19.08 14.6152 19.08C14.6207 19.08 14.1658 18.621 13.6043 18.06C13.0427 17.499 12.5788 17.04 12.5733 17.04C12.5678 17.04 13.0227 17.499 13.5842 18.06Z" fill="#ACACAC"/>
<path fill-rule="evenodd" clip-rule="evenodd" d="M1.29492 1.05334C1.2687 1.07954 1.27933 19.0298 1.30561 19.056C1.34048 19.0909 5.62728 19.0909 5.66215 19.056C5.68067 19.0376 5.68621 18.3333 5.68621 16.0077C5.68621 13.9622 5.69281 12.98 5.70672 12.9732C5.71799 12.9676 5.71577 12.9653 5.70169 12.9682C5.68119 12.9723 5.67418 13.5716 5.66618 16.0117L5.65613 19.05H3.48388H1.31163V10.045C1.31163 5.09227 1.31087 1.03998 1.30993 1.03998C1.309 1.03998 1.30228 1.04599 1.29492 1.05334ZM8.21133 1.045C8.21635 1.04774 8.85525 1.68002 9.63113 2.45001L11.0418 3.85L9.64036 2.44499C8.86962 1.67226 8.23066 1.03998 8.22056 1.03998C8.21045 1.03998 8.2063 1.04225 8.21133 1.045ZM13.2065 2.43752C12.3194 3.32386 11.8116 3.84516 11.8186 3.86254C11.8272 3.88431 11.8298 3.88373 11.8311 3.85998C11.8328 3.82689 14.5872 1.07079 14.6356 1.05375C14.6622 1.04435 14.6622 1.04301 14.6355 1.04161C14.619 1.04074 13.9759 1.66887 13.2065 2.43752ZM19.2553 1.05643C19.269 1.06513 19.9065 1.69583 20.6719 2.458L22.0635 3.84376L22.0584 5.94687L22.0533 8.05003L19.7709 8.06013L17.4885 8.07028L19.7543 8.07513C21.0004 8.07781 22.0343 8.07454 22.0517 8.06789C22.0803 8.05692 22.0834 7.85083 22.0837 5.9429L22.0841 3.82999L20.682 2.43501C19.9109 1.66777 19.2688 1.04015 19.2552 1.04033C19.2356 1.04056 19.2356 1.04395 19.2553 1.05643ZM11.0318 7.00528V10.1505L9.64053 11.5402L8.24924 12.93L7.00274 12.9402L5.75625 12.9504L7.0045 12.9552L8.25268 12.96L9.65256 11.565L11.0524 10.17L11.0521 7.01502C11.0519 5.27975 11.0473 3.86004 11.0418 3.86004C11.0363 3.86004 11.0318 5.27537 11.0318 7.00528ZM6.10666 4.62028C6.32138 4.62681 6.4993 4.63393 6.50204 4.63609C6.53236 4.65972 6.50257 9.44081 6.47202 9.45977C6.44001 9.47961 6.44042 9.48095 6.47704 9.47547C6.53504 9.46677 6.55122 4.66754 6.4934 4.625C6.46851 4.60674 6.35917 4.60114 6.08779 4.60417L5.71624 4.60832L6.10666 4.62028ZM5.67541 4.64502C5.6382 4.7427 5.67815 9.4701 5.71624 9.47197C5.74702 9.47348 5.74813 9.47202 5.72109 9.46555C5.68767 9.45761 5.68616 9.3321 5.69106 7.0386C5.69387 5.70839 5.69369 4.61999 5.69059 4.61999C5.6875 4.61999 5.68066 4.63125 5.67541 4.64502ZM17.4681 6.39003C17.4681 7.31401 17.4705 7.68908 17.4735 7.22351C17.4765 6.75793 17.4765 6.00195 17.4735 5.54349C17.4705 5.08509 17.4681 5.466 17.4681 6.39003ZM17.4719 11.3533C17.4646 11.3606 17.4585 12.278 17.4585 13.3917C17.4585 14.5055 17.453 15.431 17.4464 15.4484C17.427 15.4987 16.7094 15.4956 16.678 15.445C16.658 15.4131 16.6567 15.4135 16.6622 15.45C16.6708 15.5077 17.412 15.5233 17.4534 15.4667C17.4732 15.4397 17.4785 14.9965 17.4785 13.3962V11.36H19.7709H22.0634V13.8152V16.2704L20.6665 17.6652L19.2697 19.06H16.9475H14.6252L13.2187 17.6545C12.4452 16.8815 11.8152 16.2577 11.8187 16.2682C11.8222 16.2788 12.4552 16.9156 13.2253 17.6835L14.6256 19.0794L16.9476 19.0797L19.2697 19.08L20.6766 17.6751L22.0835 16.2703L22.0784 13.8101L22.0733 11.35L19.7794 11.3449C18.5177 11.3421 17.4793 11.3459 17.4719 11.3533Z" fill="#B4B4B4"/>
</svg>
